<?xml version="1.0" standalone="no"?>
<!DOCTYPE svg PUBLIC "-//W3C//DTD SVG 20010904//EN"
 "http://www.w3.org/TR/2001/REC-SVG-20010904/DTD/svg10.dtd">
<svg version="1.0" xmlns="http://www.w3.org/2000/svg"
 width="700.000000pt" height="700.000000pt" viewBox="0 0 700.000000 700.000000"
 preserveAspectRatio="xMidYMid meet">
<metadata>
Created by potrace 1.14, written by Peter Selinger 2001-2017
</metadata>
<g transform="translate(0.000000,700.000000) scale(0.100000,-0.100000)"
fill="#000000" stroke="none">
<path d="M0 3500 l0 -3500 3500 0 3500 0 0 3500 0 3500 -3500 0 -3500 0 0
-3500z m4007 2561 c72 -11 170 -29 217 -40 237 -56 588 -194 782 -308 l42 -24
-135 -315 -136 -314 -31 20 c-77 50 -238 137 -348 187 -168 76 -257 107 -389
137 -561 125 -1119 -28 -1564 -428 -206 -186 -387 -448 -495 -721 -163 -411
-171 -973 -21 -1425 151 -453 458 -811 866 -1010 153 -75 267 -114 419 -145
550 -111 1083 -16 1510 270 l97 65 58 -123 c32 -67 97 -202 145 -300 l85 -178
-52 -33 c-277 -176 -663 -320 -998 -373 -158 -25 -588 -24 -774 1 -332 45
-568 117 -845 257 -471 238 -812 583 -1050 1059 -246 493 -327 1083 -229 1682
134 827 642 1518 1365 1860 213 100 506 182 744 208 52 5 111 12 130 14 91 11
481 -4 607 -23z"/>
</g>
</svg>
